PathFileType	4	(X/Y/Z)	/Users/itak/Documents/Research/Walk-IL/dataset/trc/00471_00167.trc
DataRate	CameraRate	NumFrames	NumMarkers	Units	OrigDataRate	OrigDataStartFrame	OrigNumFrames
100.000000	100.000000	4	53	mm	100.000000	78	626
Frame#	Time	RPSI			LPSI			L3			STRN			T10			C7			CLAV			RBAK			LBAK			LSHO			LUPA			LAEL			LAOL			LWTS			LWPS			LFRA			LIFD			LHPS			LHTS			RSHO			RUPA			RAEL			RAOL			RWTS			RWPS			RFRA			RIFD			RHTS			RHPS			RBHD			LFHD			RFHD			LBHD			LHIP			RHIP			RASI			LASI			LKNE			LTHI			LANK			LTIP			LTOE			LMT1			LMT5			LHEE			RKNE			RTHI			RANK			RTIP			RTOE			RMT1			RMT5			RHEE			
		X1	Y1	Z1	X2	Y2	Z2	X3	Y3	Z3	X4	Y4	Z4	X5	Y5	Z5	X6	Y6	Z6	X7	Y7	Z7	X8	Y8	Z8	X9	Y9	Z9	X10	Y10	Z10	X11	Y11	Z11	X12	Y12	Z12	X13	Y13	Z13	X14	Y14	Z14	X15	Y15	Z15	X16	Y16	Z16	X17	Y17	Z17	X18	Y18	Z18	X19	Y19	Z19	X20	Y20	Z20	X21	Y21	Z21	X22	Y22	Z22	X23	Y23	Z23	X24	Y24	Z24	X25	Y25	Z25	X26	Y26	Z26	X27	Y27	Z27	X28	Y28	Z28	X29	Y29	Z29	X30	Y30	Z30	X31	Y31	Z31	X32	Y32	Z32	X33	Y33	Z33	X34	Y34	Z34	X35	Y35	Z35	X36	Y36	Z36	X37	Y37	Z37	X38	Y38	Z38	X39	Y39	Z39	X40	Y40	Z40	X41	Y41	Z41	X42	Y42	Z42	X43	Y43	Z43	X44	Y44	Z44	X45	Y45	Z45	X46	Y46	Z46	X47	Y47	Z47	X48	Y48	Z48	X49	Y49	Z49	X50	Y50	Z50	X51	Y51	Z51	X52	Y52	Z52	X53	Y53	Z53	

79	0.78	-1259.596557617188	961.5789794921875	-423.92138671875	-1232.722900390625	958.6691284179688	-561.9691772460938	-1236.78662109375	1053.747192382812	-475.7142333984375	-973.1233520507812	1255.008178710938	-449.7242431640625	-1257.995239257812	1177.98828125	-479.8809204101562	-1196.50537109375	1446.6962890625	-461.5536804199219	-1010.33154296875	1366.585571289062	-457.734619140625	-1266.955810546875	1327.649536132812	-371.0975952148438	-1219.382934570312	1397.1552734375	-563.2140502929688	-1110.17138671875	1421.052978515625	-632.5834350585938	-1107.774536132812	1304.447143554688	-733.066650390625	-1078.621826171875	1091.351806640625	-767.6701049804688	-1159.840087890625	1079.552368164062	-704.6717529296875	-1017.119995117188	879.99072265625	-744.2013549804688	-1065.651977539062	874.9450073242188	-800.3505249023438	-1065.704833984375	1003.868225097656	-784.2493286132812	-1021.129943847656	724.2333374023438	-776.3192749023438	-1062.918090820312	798.6187133789062	-810.9456787109375	-1006.314086914062	796.9404907226562	-764.9728393554688	-1141.012329101562	1419.8759765625	-295.4643859863281	-1163.163330078125	1361.378540039062	-219.1764678955078	-1158.46923828125	1076.747924804688	-155.2735748291016	-1207.416015625	1059.821166992188	-198.6333923339844	-1060.378051757812	867.9967651367188	-182.0305328369141	-1133.135009765625	855.9271850585938	-131.9485778808594	-1157.390625	1018.491455078125	-143.7339019775391	-1055.915649414062	714.079345703125	-161.5680694580078	-1043.896606445312	773.4413452148438	-163.4239807128906	-1115.15234375	769.80029296875	-128.1375274658203	-1114.39013671875	1642.115112304688	-365.0162048339844	-973.1669921875	1661.352783203125	-514.9684448242188	-978.567138671875	1658.7294921875	-384.5106506347656	-1123.1650390625	1649.877685546875	-542.454833984375	-1079.78076171875	862.0357666015625	-656.9456176757812	-1170.65283203125	861.1517944335938	-268.5368957519531	-1053.197021484375	901.2631225585938	-307.7942504882812	-996.0803833007812	897.062744140625	-560.6119995117188	-1107.41015625	445.224609375	-632.0142822265625	-1069.3505859375	595.6520385742188	-644.233154296875	-1196.196533203125	41.54925155639648	-648.78955078125	-1120.632934570312	299.3009033203125	-650.7540283203125	-980.3976440429688	43.03187561035156	-539.7501831054688	-1058.648681640625	50.63450241088867	-526.1306762695312	-1041.381103515625	44.85343170166016	-638.9453735351562	-1252.140380859375	46.35661697387695	-594.2487182617188	-1149.819946289062	469.8641967773438	-281.4461975097656	-1129.71142578125	729.0300903320312	-245.3280487060547	-1223.073608398438	46.82050323486328	-271.8545227050781	-1156.16455078125	326.7551574707031	-268.3734130859375	-1004.372436523438	47.34053421020508	-302.6929321289062	-1064.83056640625	50.43674468994141	-344.6081237792969	-1091.971313476562	49.85579299926758	-238.8729705810547	-1285.021118164062	39.04878234863281	-322.3247985839844	
80	0.79	-1259.576049804688	961.6243896484375	-423.9834594726562	-1232.691528320312	958.7169799804688	-562.0062255859375	-1236.740234375	1053.829467773438	-475.7213439941406	-972.9790649414062	1254.964721679688	-449.6286926269531	-1257.859252929688	1178.092163085938	-479.9069519042969	-1196.240600585938	1446.745483398438	-461.500244140625	-1009.982727050781	1366.583740234375	-457.6212768554688	-1266.7353515625	1327.76123046875	-371.0631408691406	-1219.086669921875	1397.2861328125	-563.2095947265625	-1109.8037109375	1421.109985351562	-632.5047607421875	-1107.450317382812	1304.473510742188	-732.9924926757812	-1078.413940429688	1091.321166992188	-767.47314453125	-1159.637573242188	1079.623657226562	-704.497314453125	-1017.025695800781	879.9629516601562	-743.7601318359375	-1065.47216796875	874.8378295898438	-799.9330444335938	-1065.51318359375	1003.796020507812	-783.9248657226562	-1021.039855957031	724.1456298828125	-775.7244262695312	-1062.76220703125	798.4937744140625	-810.5458984375	-1006.357543945312	796.8518676757812	-764.5281372070312	-1140.720825195312	1419.90185546875	-295.4202270507812	-1162.916870117188	1361.399780273438	-219.1197204589844	-1158.29833984375	1076.711669921875	-155.2883453369141	-1207.292846679688	1059.819213867188	-198.6180419921875	-1060.222900390625	868.0174560546875	-182.1953125	-1132.998291015625	855.86181640625	-132.0602111816406	-1157.23583984375	1018.442016601562	-143.8043670654297	-1055.690185546875	714.0878295898438	-161.830322265625	-1043.783203125	773.4346923828125	-163.5857849121094	-1114.986694335938	769.7571411132812	-128.2366180419922	-1114.049194335938	1642.079833984375	-364.8944702148438	-972.8009033203125	1661.344848632812	-514.8145141601562	-978.238525390625	1658.679321289062	-384.3471984863281	-1122.803344726562	1649.920166015625	-542.2954711914062	-1079.685791015625	862.02197265625	-656.8742065429688	-1170.761352539062	861.1510620117188	-268.5774841308594	-1053.294555664062	901.2508544921875	-307.7118530273438	-996.03515625	897.0493774414062	-560.5313110351562	-1107.416137695312	445.2337646484375	-631.9887084960938	-1069.343994140625	595.6557006835938	-644.1922607421875	-1196.19384765625	41.55007934570312	-648.78857421875	-1120.641845703125	299.3025512695312	-650.7523803710938	-980.3978271484375	43.03436660766602	-539.7470092773438	-1058.646850585938	50.63493728637695	-526.1295776367188	-1041.38232421875	44.85278701782227	-638.9417724609375	-1252.14013671875	46.35600280761719	-594.2486572265625	-1149.839233398438	469.8636779785156	-281.4493103027344	-1129.825805664062	729.0224609375	-245.3322296142578	-1223.079833984375	46.82205963134766	-271.8597412109375	-1156.166137695312	326.7559814453125	-268.3627014160156	-1004.372314453125	47.34060668945312	-302.6929321289062	-1064.827270507812	50.43582916259766	-344.6078491210938	-1091.979370117188	49.86121368408203	-238.8634948730469	-1285.024291992188	39.04732894897461	-322.3287658691406	
81	0.8	-1259.553833007812	961.6756591796875	-424.0350646972656	-1232.655151367188	958.772216796875	-562.0416870117188	-1236.69091796875	1053.912109375	-475.7236633300781	-972.8334350585938	1254.917846679688	-449.526123046875	-1257.712158203125	1178.195190429688	-479.9469604492188	-1195.964721679688	1446.791259765625	-461.4544372558594	-1009.615905761719	1366.608276367188	-457.5191955566406	-1266.514282226562	1327.87353515625	-371.0250549316406	-1218.785766601562	1397.419799804688	-563.2045288085938	-1109.419555664062	1421.151245117188	-632.4296264648438	-1107.089721679688	1304.483764648438	-732.9024047851562	-1078.185302734375	1091.264038085938	-767.2515258789062	-1159.435180664062	1079.688110351562	-704.3167114257812	-1016.889587402344	879.9290771484375	-743.259033203125	-1065.307373046875	874.7134399414062	-799.5136108398438	-1065.287231445312	1003.699157714844	-783.5748901367188	-1020.934753417969	724.0634155273438	-775.1033325195312	-1062.616577148438	798.3502197265625	-810.1066284179688	-1006.361755371094	796.7391357421875	-764.0667724609375	-1140.43603515625	1419.921875	-295.373779296875	-1162.671508789062	1361.421508789062	-219.0628814697266	-1158.140014648438	1076.675048828125	-155.3047485351562	-1207.168701171875	1059.81884765625	-198.6209106445312	-1060.09619140625	868.0415649414062	-182.349609375	-1132.88330078125	855.7952880859375	-132.1822357177734	-1157.093383789062	1018.398864746094	-143.8680419921875	-1055.468505859375	714.107666015625	-162.0728302001953	-1043.67919921875	773.435791015625	-163.7279968261719	-1114.81982421875	769.7092895507812	-128.3646697998047	-1113.735717773438	1642.048217773438	-364.7930603027344	-972.4166870117188	1661.327880859375	-514.6533813476562	-977.918212890625	1658.625610351562	-384.1875610351562	-1122.416381835938	1649.973388671875	-542.1475830078125	-1079.599365234375	862.0092163085938	-656.8067016601562	-1170.869140625	861.1537475585938	-268.6076354980469	-1053.396728515625	901.2316284179688	-307.630615234375	-995.9979858398438	897.0374145507812	-560.4557495117188	-1107.419921875	445.2464599609375	-631.95556640625	-1069.34033203125	595.6619262695312	-644.151611328125	-1196.1904296875	41.55198287963867	-648.7872924804688	-1120.652709960938	299.3052062988281	-650.750244140625	-980.3956909179688	43.03561401367188	-539.7432861328125	-1058.645385742188	50.63540267944336	-526.1287841796875	-1041.383056640625	44.85194396972656	-638.9385986328125	-1252.139770507812	46.35584259033203	-594.247314453125	-1149.86376953125	469.8631286621094	-281.4551391601562	-1129.9384765625	729.0140380859375	-245.3385620117188	-1223.084716796875	46.82367324829102	-271.8642272949219	-1156.178466796875	326.7575988769531	-268.360107421875	-1004.371765136719	47.34024810791016	-302.6921081542969	-1064.821533203125	50.43404006958008	-344.6077880859375	-1091.989624023438	49.86643981933594	-238.8509216308594	-1285.027465820312	39.04590225219727	-322.3327331542969	
82	0.8100000000000001	-1259.534057617188	961.7317504882812	-424.0770263671875	-1232.615844726562	958.8331298828125	-562.07275390625	-1236.637939453125	1053.995239257812	-475.7235107421875	-972.6854858398438	1254.868530273438	-449.4187316894531	-1257.555419921875	1178.2958984375	-479.9977722167969	-1195.677978515625	1446.83544921875	-461.4169311523438	-1009.239379882812	1366.64990234375	-457.425537109375	-1266.294555664062	1327.98291015625	-370.98388671875	-1218.482666015625	1397.549072265625	-563.1976318359375	-1109.0234375	1421.177856445312	-632.3576049804688	-1106.697143554688	1304.481323242188	-732.7978515625	-1077.935302734375	1091.183349609375	-767.0048828125	-1159.234985351562	1079.743774414062	-704.1350708007812	-1016.728515625	879.8833618164062	-742.7203979492188	-1065.158447265625	874.5814208984375	-799.1002807617188	-1065.035888671875	1003.585144042969	-783.2132568359375	-1020.840698242188	723.9816284179688	-774.4692993164062	-1062.483276367188	798.1964111328125	-809.6336059570312	-1006.31005859375	796.6136474609375	-763.5642700195312	-1140.164916992188	1419.936279296875	-295.3232421875	-1162.430786132812	1361.445678710938	-219.0040435791016	-1157.99365234375	1076.641723632812	-155.3228912353516	-1207.043334960938	1059.821899414062	-198.6410980224609	-1060.002197265625	868.0679321289062	-182.4909515380859	-1132.789428710938	855.7301635742188	-132.3140106201172	-1156.965576171875	1018.365478515625	-143.9207763671875	-1055.25927734375	714.137451171875	-162.2936706542969	-1043.581420898438	773.4479370117188	-163.8570861816406	-1114.653076171875	769.6580810546875	-128.5296783447266	-1113.448852539062	1642.021728515625	-364.7120666503906	-972.0166015625	1661.30029296875	-514.48486328125	-977.6090698242188	1658.5673828125	-384.0315551757812	-1121.995971679688	1650.029541015625	-542.011474609375	-1079.525756835938	861.9984130859375	-656.7474975585938	-1170.973388671875	861.1607055664062	-268.6284790039062	-1053.499877929688	901.207763671875	-307.5539245605469	-995.9779663085938	897.0258178710938	-560.3873901367188	-1107.421997070312	445.2583312988281	-631.9190673828125	-1069.339233398438	595.6692504882812	-644.1134033203125	-1196.186889648438	41.55471420288086	-648.7861938476562	-1120.664428710938	299.3087158203125	-650.7470703125	-980.392578125	43.03525543212891	-539.7394409179688	-1058.644165039062	50.63578033447266	-526.1282348632812	-1041.383911132812	44.85107803344727	-638.9359741210938	-1252.139526367188	46.35625457763672	-594.2451782226562	-1149.892822265625	469.8625793457031	-281.46337890625	-1130.047729492188	729.0071411132812	-245.3441009521484	-1223.087890625	46.82491302490234	-271.8674621582031	-1156.202026367188	326.7604370117188	-268.3658142089844	-1004.371154785156	47.33966827392578	-302.6900939941406	-1064.816040039062	50.43359375	-344.6074829101562	-1092.001831054688	49.8715705871582	-238.8354034423828	-1285.030029296875	39.04476165771484	-322.3358459472656	
